<?xml version="1.0" encoding="utf-8"?>
<!-- Generator: Adobe Illustrator 22.0.1, SVG Export Plug-In . SVG Version: 6.00 Build 0)  -->
<svg version="1.1" id="Слой_1" xmlns="http://www.w3.org/2000/svg" xmlns:xlink="http://www.w3.org/1999/xlink" x="0px" y="0px"
	 viewBox="0 0 2574 48" style="enable-background:new 0 0 2574 48;" xml:space="preserve">
<style type="text/css">
	.st0{fill:#FFFFFF;}
</style>
<g>
	<path class="st0" d="M1506.9,1.6c27,0.3,53.9,2.1,80.8,4c30.5,2.2,61.1,4,91.7,6.4c36.4,2.8,72.7,5,109.2,6.6
		c32.8,1.4,65.6,2.3,98.4,3c42.8,0.9,85.6,1.6,128.4,2.1c41.8,0.5,83.6,0.6,125.4,0.8c93.5,0.4,186.9,0.7,280.4-0.2
		c49.5-0.5,99-0.4,148.4-0.5c1.8,0,3.6,0.2,5.5,0.3c0,7.5-0.1,15,0.1,22.5c0,2.2-0.4,2.9-2.6,2.5c-0.6-0.1-1.3,0-2,0
		c-596.8,0-1193.7,0-1790.5,0c2.7-1.2,5.6-0.8,8.4-0.9c30-0.5,60-0.3,90-1c47.3-1.2,94.5-3,141.7-6.2c27.6-1.9,55.1-4,82.6-7.4
		c55.8-6.9,111.5-15.3,167.5-21c41.6-4.2,83.2-8.1,125-9.8c11-0.4,21.9-1.1,32.9-1.6"/>
	<path class="st0" d="M1,13c10.8,0.9,21.5,1.8,32.3,2.7c25.1,1.9,50.1,3.9,75.2,5.7c20.6,1.5,41.2,2.9,61.8,4.2
		c24.9,1.6,49.8,3.3,74.7,4.8c18.4,1.1,36.9,2.2,55.3,3.2c31.2,1.7,62.5,3.3,93.8,4.9c15.6,0.8,31.3,1.5,46.9,2.1
		c44.9,1.7,89.8,3.3,134.8,4.9c13.5,0.5,27,0.7,40.5,1c46.1,0.8,92.3,1.1,138.4,1.6c2.8,0,5.7-0.3,8.4,0.9c-252.5,0-505,0-757.5,0.1
		c-3.7,0-4.7-0.8-4.6-4.6C1.2,34,1,23.5,1,13z"/>
</g>
</svg>
