<?xml version="1.0" encoding="utf-8"?>
<!-- Generator: Adobe Illustrator 22.0.1, SVG Export Plug-In . SVG Version: 6.00 Build 0)  -->
<svg version="1.1" id="Слой_1" xmlns="http://www.w3.org/2000/svg" xmlns:xlink="http://www.w3.org/1999/xlink" x="0px" y="0px"
	 viewBox="0 0 2573.2 57.9" style="enable-background:new 0 0 2573.2 57.9;" xml:space="preserve">
<style type="text/css">
	.st0{fill:#FFFFFF;}
</style>
<g>
	<path class="st0" d="M2573.3,34.9c-13.8-1.1-27.5-2.1-41.3-3.2c-15.4-1.2-30.9-2.5-46.3-3.6c-22.6-1.7-45.2-3.3-67.7-4.8
		c-17.1-1.2-34.2-2.2-51.3-3.2c-26.9-1.6-53.8-3.2-80.8-4.8c-13.6-0.8-27.3-1.5-40.9-2.2c-34.3-1.7-68.5-3.3-102.8-4.9
		c-17.8-0.8-35.6-1.6-53.4-2.1c-42.3-1.1-84.6-2.8-126.9-3.5c-14.3-0.2-28.6-0.3-43-0.7c-48.3-1.3-96.6-1.1-145-0.7
		c-30.5,0.2-61,1-91.4,2c-27.6,0.9-55.2,2.2-82.8,3.9c-61,3.8-121.7,10.1-181.9,21.3c-29.5,5.5-59.3,8.9-89.1,11.7
		c-36.5,3.4-73,5.1-109.7,6.2c-33.8,1-67.6,0.2-101.4-0.7c-32.8-0.9-65.5-2.9-98.3-4.8c-35.4-2.1-70.8-4.6-106.1-7
		c-26.4-1.8-52.8-3.1-79.3-4.1c-32.5-1.3-65-1.4-97.4-0.4c-40.5,1.3-80.6,6.4-120.4,14c-26.8,5.1-54,7.7-81.3,9.8
		c-31.1,2.4-62.2,3.3-93.3,4.3c-40.2,1.3-80.3,0-120.4-0.7c-23.5-0.4-46.9-1.6-70.4-2.8c-29.9-1.6-59.8-3.6-89.7-5.7
		c-26.7-1.9-53.5-3.9-80.1-6.3c-24.5-2.2-49.1-4.3-73.5-7.6C4.7,34,2,34-0.7,33.9c0-10.5,0.1-21-0.1-31.5c0-2.2,0.4-2.9,2.6-2.5
		c0.6,0.1,1.3,0,2,0c855,0,1710,0,2565-0.1c3.7,0,4.7,0.8,4.6,4.6C2573.1,14.6,2573.3,24.7,2573.3,34.9z"/>
</g>
</svg>
