<?xml version="1.0" encoding="utf-8"?>
<!-- Generator: Adobe Illustrator 22.0.1, SVG Export Plug-In . SVG Version: 6.00 Build 0)  -->
<svg version="1.1" id="Слой_1" xmlns="http://www.w3.org/2000/svg" xmlns:xlink="http://www.w3.org/1999/xlink" x="0px" y="0px"
	 viewBox="0 0 2562.9 42.8" style="enable-background:new 0 0 2562.9 42.8;" xml:space="preserve">
<style type="text/css">
	.st0{fill:#FFFFFF;}
</style>
<g>
	<path class="st0" d="M2563.9,15.8c-18-0.8-35.9-1.3-53.9-2.4c-9-0.6-18-0.7-26.9-1.2c-21.9-1.2-43.9-1.5-65.9-2.4
		c-30.3-1.3-60.6-2.2-90.9-3.1c-24.6-0.7-49.3-1.3-73.9-2c-33.5-0.9-66.9-1.2-100.4-2.1c-23.5-0.6-47-0.3-70.5-0.8
		c-92.8-1.9-185.6-0.9-278.4-0.6c-25.5,0.1-51,0.4-76.4,0.9c-29.3,0.5-58.6,1.2-87.9,2c-31.5,0.9-62.9,1.9-94.4,3
		c-26.1,0.9-52.2,1.9-78.4,3c-32.1,1.3-64.2,2.7-96.3,4.1c-21.5,0.9-42.9,1.9-64.3,2.9c-35.6,1.7-71.2,3.4-106.7,5.1
		c-27.4,1.3-54.9,2.6-82.3,3.9c-36.2,1.7-72.5,3.2-108.7,5.1c-22.9,1.2-45.9,1.9-68.8,3c-34.6,1.6-69.2,2.8-103.8,4
		c-19.6,0.7-39.3,1.3-58.9,2c-27.1,0.9-54.3,1.3-81.4,2.2c-19,0.6-38,0.4-57,0.8c-2.3,0.1-4.7-0.3-6.9,0.8c-45,0-90,0-135,0
		c-1.5-0.8-3.2-0.8-4.9-0.8c-19.3-0.3-38.6-0.4-57.9-0.8c-28-0.6-55.9-1.8-83.9-2.6c-8.6-0.2-17.3-0.5-25.9-1
		c-29.1-1.6-58.1-3.1-87.2-4.8c-17.6-1-35.2-2.1-52.8-3.3c-19.6-1.4-39.1-3-58.7-4.6c-20.7-1.7-41.4-3.5-62.1-5.5
		c-20.9-2-41.7-4.4-62.5-6.6c0-4.7-1.8-11.2,0.5-13.5s8.8-0.5,13.5-0.5c848.5,0,1697,0,2545.5-0.1c3.7,0,5,0.8,4.6,4.6
		C2563.6,8.1,2563.9,12,2563.9,15.8z"/>
</g>
</svg>
