<?xml version="1.0" encoding="utf-8"?>
<!-- Generator: Adobe Illustrator 22.0.1, SVG Export Plug-In . SVG Version: 6.00 Build 0)  -->
<svg version="1.1" id="Слой_1" xmlns="http://www.w3.org/2000/svg" xmlns:xlink="http://www.w3.org/1999/xlink" x="0px" y="0px"
	 viewBox="0 0 2562.6 88" style="enable-background:new 0 0 2562.6 88;" xml:space="preserve">
<style type="text/css">
	.st0{fill:#FFFFFF;}
</style>
<g>
	<path class="st0" d="M2212.5,1.8c28,0.6,55.8,3.7,83.5,7.4c46.7,6.3,92.8,16,138.9,26c42.6,9.2,85,20,128.7,22.8
		c0,9.5-0.1,19,0.1,28.5c0,2.1-0.4,3-2.6,2.5c-0.6-0.1-1.3,0-2,0c-851.7,0-1703.3,0-2555,0.1c-3.8,0-4.7-0.9-4.6-4.6
		C-0.2,72-0.4,59.5-0.4,47c25.5,2.6,51,5.4,76.5,7.9c23.9,2.4,47.7,4.6,71.6,6.7c22.1,1.9,44.1,3.6,66.2,5.3
		c24.9,1.9,49.8,3.9,74.7,5.7c16.6,1.2,33.2,2.2,49.8,3.3c27.2,1.6,54.5,3.3,81.8,4.8c15.5,0.9,30.9,1.6,46.4,2.2
		c32.1,1.2,64.2,2.3,96.4,3.4c66,2.2,131.9,2,197.9,1.4c27.3-0.3,54.6-1.5,81.9-2.9c74.9-3.9,149.2-12.5,222.7-28.2
		c43.8-9.4,88.2-16,132.6-21.4c28.1-3.4,56.3-6.1,84.5-7.5c24.3-1.2,48.6-2.2,72.9-1.5c32.1,0.9,64.2,2.9,96.1,6.5
		c32.4,3.6,64.9,6.8,97.3,10.4c30.1,3.3,60.3,5.9,90.6,7.5c24.4,1.3,48.9,0.6,73.4-1.3c21.7-1.7,43.5-3.6,65.1-6.3
		c28.1-3.5,56.2-7,84.2-10.6c34.5-4.4,69-9.2,103.5-13.5c27.7-3.5,55.5-6.7,83.3-9.6c21.7-2.2,43.4-3.7,65.2-5.4
		c13.3-1,26.6-2,39.9-2.1"/>
</g>
</svg>
